<svg width="30" height="41" viewBox="0 0 30 41" fill="none" xmlns="http://www.w3.org/2000/svg">
<path d="M29.9059 15.4149C29.9059 22.4319 20.7939 34.9244 16.7987 40.0787C15.8408 41.3071 14.0651 41.3071 13.1072 40.0787C9.11195 34.9244 0 22.4319 0 15.4149C0 6.90459 6.69767 0 14.9529 0C23.2082 0 29.9059 6.90459 29.9059 15.4149Z" fill="#109A13"/>
<path d="M9.14656 9.00758C8.05068 9.00758 7.15969 9.89553 7.15969 10.9877V22.8684C6.61019 22.8684 6.16625 23.3108 6.16625 23.8584C6.16625 24.4061 6.61019 24.8485 7.15969 24.8485H16.1006C16.6501 24.8485 17.0941 24.4061 17.0941 23.8584C17.0941 23.3108 16.6501 22.8684 16.1006 22.8684V18.4131H16.5973C17.2834 18.4131 17.8391 18.9669 17.8391 19.6507V20.6407C17.8391 21.8721 18.8388 22.8684 20.0744 22.8684C21.31 22.8684 22.3096 21.8721 22.3096 20.6407V16.8136C23.3186 16.498 24.0481 15.5605 24.0481 14.4529V13.4628C24.0481 13.1906 23.8246 12.9678 23.5514 12.9678H23.0547V11.4827C23.0547 11.2105 22.8312 10.9877 22.558 10.9877C22.2848 10.9877 22.0612 11.2105 22.0612 11.4827V12.9678H21.0678V11.4827C21.0678 11.2105 20.8443 10.9877 20.5711 10.9877C20.2979 10.9877 20.0744 11.2105 20.0744 11.4827V12.9678H19.5777C19.3045 12.9678 19.0809 13.1906 19.0809 13.4628V14.4529C19.0809 15.5605 19.8105 16.498 20.8194 16.8136V20.6407C20.8194 21.0522 20.4873 21.3833 20.0744 21.3833C19.6615 21.3833 19.3293 21.0522 19.3293 20.6407V19.6507C19.3293 18.147 18.1061 16.928 16.5973 16.928H16.1006V10.9877C16.1006 9.89553 15.2096 9.00758 14.1137 9.00758H9.14656ZM12.8999 11.5663C13.0862 11.69 13.1638 11.9221 13.0955 12.1324L12.3194 14.4498H14.1137C14.3217 14.4498 14.508 14.5797 14.5794 14.7716C14.6508 14.9634 14.5949 15.1831 14.4366 15.3192L10.9596 18.2894C10.7888 18.4348 10.5436 18.4471 10.3604 18.3234C10.1773 18.1996 10.0965 17.9676 10.1648 17.7572L10.941 15.4399H9.14656C8.93856 15.4399 8.75229 15.3099 8.68089 15.1181C8.60949 14.9263 8.66537 14.7066 8.8237 14.5705L12.3007 11.6003C12.4715 11.4549 12.7167 11.4425 12.8999 11.5663V11.5663Z" fill="white"/>
</svg>
